<svg width="105" height="16" viewBox="0 0 105 16" fill="none" xmlns="http://www.w3.org/2000/svg">
<path d="M4.45703 9.3L4.27703 9.88H8.07703L7.89703 9.28C7.4437 7.84 7.07036 6.63333 6.77703 5.66C6.49703 4.67333 6.3237 4.05333 6.25703 3.8L6.17703 3.4C6.05703 4.06667 5.4837 6.03333 4.45703 9.3ZM2.65703 15H0.0170313L4.57703 1.52H7.83703L12.397 15H9.67703L8.71703 11.94H3.61703L2.65703 15ZM22.9336 15H20.5136V13.34C19.9803 14.5133 18.9403 15.1 17.3936 15.1C16.3669 15.1 15.5669 14.8067 14.9936 14.22C14.4203 13.6333 14.1336 12.8 14.1336 11.72V4.86H16.5336V11.16C16.5336 11.8 16.6869 12.2867 16.9936 12.62C17.3136 12.9533 17.7469 13.12 18.2936 13.12C18.9869 13.12 19.5269 12.8867 19.9136 12.42C20.3136 11.9533 20.5136 11.2467 20.5136 10.3V4.86H22.9336V15ZM31.1422 14.76C30.6755 14.9867 30.0755 15.1 29.3422 15.1C27.1555 15.1 26.0622 13.9933 26.0622 11.78V6.66H24.5422V4.86H26.0622V2.42H28.4622V4.86H30.9822V6.66H28.4622V11.82C28.4622 12.2467 28.5755 12.5733 28.8022 12.8C29.0289 13.0133 29.3422 13.12 29.7422 13.12C30.2489 13.12 30.7155 12.98 31.1422 12.7V14.76ZM42.3603 9.9C42.3603 11.4333 41.927 12.6933 41.0603 13.68C40.207 14.6667 39.007 15.16 37.4603 15.16C35.927 15.16 34.727 14.68 33.8603 13.72C33.007 12.76 32.5803 11.5333 32.5803 10.04C32.5803 8.49333 33.027 7.22 33.9203 6.22C34.8136 5.20667 35.9936 4.7 37.4603 4.7C39.0203 4.7 40.227 5.19333 41.0803 6.18C41.9336 7.15333 42.3603 8.39333 42.3603 9.9ZM35.1003 9.96C35.1003 10.8933 35.307 11.6733 35.7203 12.3C36.1336 12.9267 36.7203 13.24 37.4803 13.24C38.267 13.24 38.8603 12.9333 39.2603 12.32C39.6603 11.7067 39.8603 10.9267 39.8603 9.98C39.8603 9.00667 39.667 8.21333 39.2803 7.6C38.8936 6.97333 38.287 6.66 37.4603 6.66C36.7003 6.66 36.1136 6.97333 35.7003 7.6C35.3003 8.22667 35.1003 9.01333 35.1003 9.96ZM54.3689 14.36C53.5422 14.8933 52.3822 15.16 50.8889 15.16C48.8889 15.16 47.2356 14.5333 45.9289 13.28C44.6356 12.0133 43.9889 10.34 43.9889 8.26C43.9889 6.22 44.6289 4.56 45.9089 3.28C47.2022 1.98667 48.8622 1.34 50.8889 1.34C52.3689 1.34 53.5222 1.58667 54.3489 2.08V4.54C53.3356 3.95333 52.2156 3.66 50.9889 3.66C49.7622 3.66 48.7356 4.08 47.9089 4.92C47.0956 5.74667 46.6889 6.86 46.6889 8.26C46.6889 9.66 47.0956 10.7733 47.9089 11.6C48.7356 12.4267 49.8089 12.84 51.1289 12.84C52.3956 12.84 53.4756 12.5067 54.3689 11.84V14.36ZM59.0164 15H56.5964L56.6164 4.86H59.0164V6.66C59.4831 5.40667 60.3364 4.78 61.5764 4.78C61.8564 4.78 62.0831 4.8 62.2564 4.84V7.16C61.9497 7.02667 61.6097 6.96 61.2364 6.96C60.5831 6.96 60.0497 7.22667 59.6364 7.76C59.2231 8.29333 59.0164 8.96 59.0164 9.76V15ZM67.1472 13.3C67.6805 13.3 68.0939 13.1467 68.3872 12.84C68.6939 12.52 68.8472 12.1067 68.8472 11.6V10.64H67.6072C66.9805 10.64 66.5005 10.7733 66.1672 11.04C65.8339 11.2933 65.6672 11.62 65.6672 12.02C65.6672 12.8733 66.1605 13.3 67.1472 13.3ZM68.9472 13.78C68.4805 14.6467 67.6005 15.08 66.3072 15.08C65.3472 15.08 64.5805 14.8 64.0072 14.24C63.4472 13.68 63.1672 12.9733 63.1672 12.12C63.1672 11.16 63.5272 10.4067 64.2472 9.86C64.9672 9.31333 66.0072 9.04 67.3672 9.04H68.8472V8.42C68.8472 7.86 68.7005 7.43333 68.4072 7.14C68.1139 6.84667 67.6139 6.7 66.9072 6.7C65.8272 6.7 64.8339 7 63.9272 7.6V5.38C64.6872 4.91333 65.7805 4.68 67.2072 4.68C69.9539 4.68 71.3272 5.96 71.3272 8.52V15H68.9472V13.78ZM79.0039 6.66H76.9839V15H74.5839V6.66H73.1039V4.86H74.5839V4.26C74.5839 3.12667 74.8972 2.24 75.5239 1.6C76.1506 0.959999 77.0172 0.639999 78.1239 0.639999C78.6306 0.639999 79.0706 0.699999 79.4439 0.819999V2.84C79.0972 2.70667 78.7639 2.64 78.4439 2.64C77.4706 2.64 76.9839 3.18667 76.9839 4.28V4.86H79.0039V6.66ZM86.2008 14.76C85.7341 14.9867 85.1341 15.1 84.4008 15.1C82.2141 15.1 81.1208 13.9933 81.1208 11.78V6.66H79.6008V4.86H81.1208V2.42H83.5208V4.86H86.0408V6.66H83.5208V11.82C83.5208 12.2467 83.6341 12.5733 83.8608 12.8C84.0874 13.0133 84.4008 13.12 84.8008 13.12C85.3074 13.12 85.7741 12.98 86.2008 12.7V14.76Z" fill="#BAFBE4"/>
<path d="M91.8789 9.3L91.6989 9.88H95.4989L95.3189 9.28C94.8656 7.84 94.4922 6.63333 94.1989 5.66C93.9189 4.67333 93.7456 4.05333 93.6789 3.8L93.5989 3.4C93.4789 4.06667 92.9056 6.03333 91.8789 9.3ZM90.0789 15H87.4389L91.9989 1.52H95.2589L99.8189 15H97.0989L96.1389 11.94H91.0389L90.0789 15ZM104.435 15H101.915V1.52H104.435V15Z" fill="#00FFA3"/>
</svg>
